<mxfile host="Electron" modified="2023-10-06T10:39:23.726Z" agent="Mozilla/5.0 (Windows NT 10.0; Win64; x64) AppleWebKit/537.36 (KHTML, like Gecko) draw.io/22.0.2 Chrome/114.0.5735.289 Electron/25.8.4 Safari/537.36" etag="drLzYTp6xzqqbxowub5y" version="22.0.2" type="device">
  <diagram name="Page-1" id="wWSPUwWWf8oPxcgkfaM6">
    <mxGraphModel dx="1050" dy="621" grid="1" gridSize="10" guides="1" tooltips="1" connect="1" arrows="1" fold="1" page="1" pageScale="1" pageWidth="850" pageHeight="1100" math="0" shadow="0">
      <root>
        <mxCell id="0" />
        <mxCell id="1" parent="0" />
        <mxCell id="laVgsPXWRtJM4UvOSfo9-8" value="" style="rounded=1;whiteSpace=wrap;html=1;dashed=1;dashPattern=8 8;" parent="1" vertex="1">
          <mxGeometry x="50" y="180" width="760" height="340" as="geometry" />
        </mxCell>
        <mxCell id="laVgsPXWRtJM4UvOSfo9-9" value="NodeJs Express API&lt;br&gt;(nasa-express-api)" style="rounded=1;whiteSpace=wrap;html=1;" parent="1" vertex="1">
          <mxGeometry x="380" y="390" width="175" height="90" as="geometry" />
        </mxCell>
        <mxCell id="dIk5Bh2vNdLUNsyOQilF-3" style="edgeStyle=orthogonalEdgeStyle;rounded=0;orthogonalLoop=1;jettySize=auto;html=1;entryX=1;entryY=0.5;entryDx=0;entryDy=0;curved=1;" edge="1" parent="1" source="laVgsPXWRtJM4UvOSfo9-4" target="laVgsPXWRtJM4UvOSfo9-9">
          <mxGeometry relative="1" as="geometry">
            <mxPoint x="620" y="280" as="sourcePoint" />
            <mxPoint x="565" y="435" as="targetPoint" />
          </mxGeometry>
        </mxCell>
        <mxCell id="laVgsPXWRtJM4UvOSfo9-4" value="Kepler_data.csv" style="shape=document;whiteSpace=wrap;html=1;boundedLbl=1;" parent="1" vertex="1">
          <mxGeometry x="650" y="230" width="120" height="80" as="geometry" />
        </mxCell>
        <mxCell id="dIk5Bh2vNdLUNsyOQilF-5" style="edgeStyle=orthogonalEdgeStyle;rounded=0;orthogonalLoop=1;jettySize=auto;html=1;exitX=0.55;exitY=0.95;exitDx=0;exitDy=0;exitPerimeter=0;dashed=1;curved=1;" edge="1" parent="1" source="laVgsPXWRtJM4UvOSfo9-14" target="laVgsPXWRtJM4UvOSfo9-4">
          <mxGeometry relative="1" as="geometry" />
        </mxCell>
        <mxCell id="laVgsPXWRtJM4UvOSfo9-14" value="NASA &lt;br&gt;Exoplanet &lt;br&gt;Archive" style="ellipse;shape=cloud;whiteSpace=wrap;html=1;" parent="1" vertex="1">
          <mxGeometry x="644" y="15" width="120" height="80" as="geometry" />
        </mxCell>
        <mxCell id="laVgsPXWRtJM4UvOSfo9-17" value="Manual&amp;nbsp; download" style="text;html=1;align=center;verticalAlign=middle;resizable=0;points=[];autosize=1;strokeColor=none;fillColor=none;" parent="1" vertex="1">
          <mxGeometry x="590" y="130" width="120" height="30" as="geometry" />
        </mxCell>
        <mxCell id="laVgsPXWRtJM4UvOSfo9-18" style="edgeStyle=none;rounded=0;orthogonalLoop=1;jettySize=auto;html=1;entryX=0.43;entryY=-0.033;entryDx=0;entryDy=0;entryPerimeter=0;" parent="1" source="laVgsPXWRtJM4UvOSfo9-17" target="laVgsPXWRtJM4UvOSfo9-17" edge="1">
          <mxGeometry relative="1" as="geometry" />
        </mxCell>
        <mxCell id="dIk5Bh2vNdLUNsyOQilF-6" style="edgeStyle=orthogonalEdgeStyle;rounded=0;orthogonalLoop=1;jettySize=auto;html=1;exitX=0.5;exitY=1;exitDx=0;exitDy=0;exitPerimeter=0;curved=1;startArrow=classic;startFill=1;" edge="1" parent="1" source="dIk5Bh2vNdLUNsyOQilF-1" target="laVgsPXWRtJM4UvOSfo9-9">
          <mxGeometry relative="1" as="geometry" />
        </mxCell>
        <mxCell id="dIk5Bh2vNdLUNsyOQilF-1" value="Mongo DB" style="shape=cylinder3;whiteSpace=wrap;html=1;boundedLbl=1;backgroundOutline=1;size=15;" vertex="1" parent="1">
          <mxGeometry x="470" y="10" width="70" height="90" as="geometry" />
        </mxCell>
        <mxCell id="dIk5Bh2vNdLUNsyOQilF-7" value="mongoose / &lt;br&gt;mongodb driver" style="text;html=1;align=center;verticalAlign=middle;resizable=0;points=[];autosize=1;strokeColor=none;fillColor=none;" vertex="1" parent="1">
          <mxGeometry x="400" y="120" width="110" height="40" as="geometry" />
        </mxCell>
      </root>
    </mxGraphModel>
  </diagram>
</mxfile>
